<?xml version="1.0" encoding="utf-8"?>
<!-- Generator: Adobe Illustrator 27.5.0, SVG Export Plug-In . SVG Version: 6.00 Build 0)  -->
<svg version="1.1" xmlns="http://www.w3.org/2000/svg" xmlns:xlink="http://www.w3.org/1999/xlink" x="0px" y="0px"
	 viewBox="0 0 499.999 500" style="enable-background:new 0 0 499.999 500;" xml:space="preserve">
<g id="BACKGROUND">
	<rect style="fill:#FFFFFF;" width="499.999" height="500"/>
</g>
<g id="OBJECTS">
	<g id="FLOOR">
		<path style="fill:#7EA580;" d="M298.991,343.802c0,0-31.884-115.909-5.424-129.661c26.46-13.752,32.068,55.537,21.574,124.907"/>
		<polyline style="fill:#C4D6C5;" points="306.766,337.26 298.991,236.907 311.406,337.26 		"/>
		<g>
			<path style="fill:#8CB58F;" d="M88.776,377.792c0,0-86.552-163.028-53.773-192.058c32.779-29.029,35.579,140.503,50.528,144.167
				c14.948,3.665-19.285-77.525,3.454-87.092c22.738-9.565,21.049,133.542,21.049,133.542"/>
			<path style="fill:#C4D6C5;" d="M50.443,239.803l2.276,8.939l2.331,8.921c1.57,5.942,3.271,11.85,4.903,17.771
				c1.654,5.917,3.385,11.811,5.178,17.683c1.784,5.876,3.667,11.719,5.605,17.54c0.945,2.918,1.954,5.814,2.942,8.717
				c1.029,2.889,2.035,5.784,3.116,8.651c1.05,2.88,2.174,5.728,3.265,8.589c1.141,2.841,2.27,5.685,3.487,8.49
				c0.587,1.413,1.203,2.812,1.84,4.2c0.636,1.389,1.235,2.796,1.914,4.162c0.668,1.371,1.311,2.756,1.999,4.116l2.091,4.063
				l2.216,3.985c0.757,1.315,1.573,2.592,2.357,3.89c0.802,1.284,1.688,2.504,2.527,3.761c0.878,1.223,1.826,2.384,2.735,3.581
				l-2.566,0.937l-0.159-12.919c-0.1-4.308-0.131-8.619-0.287-12.926l-0.382-12.925l-0.528-12.919
				c-0.161-4.309-0.506-8.603-0.75-12.907l-0.402-6.454l-0.537-6.44l-0.545-6.443c-0.187-2.148-0.327-4.303-0.653-6.433
				c-0.578-4.269-1.103-8.551-1.639-12.839c0.78,4.241,1.571,8.488,2.309,12.748c0.419,2.124,0.651,4.27,0.931,6.412l0.824,6.429
				l0.812,6.434l0.573,6.455c0.358,4.305,0.818,8.605,1.092,12.916l0.87,12.933c0.266,4.313,0.449,8.629,0.642,12.944
				c0.214,4.315,0.304,8.636,0.463,12.953c0.137,4.321,0.225,8.635,0.27,12.967l0.045,4.332l-2.611-3.395
				c-0.958-1.245-1.96-2.465-2.879-3.733c-0.875-1.295-1.802-2.563-2.634-3.882c-0.812-1.329-1.658-2.642-2.44-3.986l-2.284-4.064
				l-2.136-4.134c-0.693-1.387-1.34-2.793-2.011-4.188c-0.683-1.392-1.283-2.816-1.92-4.226c-0.639-1.409-1.255-2.827-1.841-4.256
				c-1.218-2.842-2.345-5.716-3.482-8.587c-1.096-2.885-2.199-5.768-3.21-8.682c-1.05-2.901-2.022-5.826-3.018-8.744
				c-0.954-2.931-1.928-5.854-2.838-8.799c-0.943-2.933-1.786-5.897-2.669-8.847l-2.519-8.889
				c-1.643-5.934-3.224-11.884-4.725-17.852c-1.53-5.962-2.871-11.971-4.22-17.973C52.829,251.874,51.556,245.854,50.443,239.803z"
				/>
		</g>
		<g>
			<path style="fill:#90AD93;" d="M393.541,308.585c0,0,72.719-169.65,37.643-195.858c-35.076-26.208-23.793,142.971-38.387,147.864
				c-14.592,4.893,12.783-78.858-10.671-86.504c-23.453-7.645-9.891,134.829-9.891,134.829"/>
			<path style="fill:#C4D6C5;" d="M420.287,167.891l-1.527,9.097l-1.581,9.084c-1.071,6.052-2.276,12.08-3.412,18.116
				c-1.156,6.033-2.393,12.051-3.692,18.051c-1.289,6.004-2.681,11.983-4.129,17.945c-0.699,2.986-1.465,5.956-2.209,8.931
				c-0.784,2.963-1.548,5.934-2.386,8.879c-0.809,2.959-1.692,5.889-2.541,8.832c-0.901,2.926-1.79,5.854-2.77,8.75
				c-0.469,1.457-0.966,2.9-1.485,4.338c-0.52,1.438-0.999,2.889-1.562,4.307c-0.552,1.422-1.077,2.855-1.65,4.268l-1.747,4.223
				l-1.877,4.156c-0.646,1.373-1.353,2.713-2.025,4.07c-0.693,1.348-1.475,2.637-2.207,3.959c-0.773,1.291-1.621,2.525-2.428,3.795
				l2.635,0.721l-0.914-12.889c-0.258-4.301-0.585-8.6-0.786-12.904l-0.692-12.912l-0.546-12.918
				c-0.198-4.307-0.211-8.616-0.324-12.925l-0.135-6.465v-6.463l0.009-6.467c0.008-2.155-0.032-4.314,0.116-6.464
				c0.222-4.302,0.39-8.613,0.567-12.931c-0.425,4.291-0.86,8.589-1.242,12.896c-0.242,2.151-0.295,4.31-0.396,6.468l-0.288,6.475
				l-0.273,6.479l-0.036,6.48c0.001,4.319-0.1,8.644-0.017,12.962l0.208,12.959c0.093,4.32,0.269,8.637,0.434,12.953
				c0.146,4.318,0.414,8.633,0.614,12.947c0.223,4.318,0.493,8.623,0.808,12.945l0.315,4.32l2.32-3.6
				c0.852-1.32,1.748-2.619,2.559-3.959c0.766-1.363,1.584-2.703,2.304-4.088c0.698-1.393,1.434-2.77,2.1-4.176l1.94-4.24
				l1.784-4.295c0.576-1.44,1.104-2.895,1.657-4.342c0.565-1.443,1.045-2.914,1.563-4.371c0.52-1.457,1.017-2.922,1.482-4.393
				c0.979-2.934,1.861-5.891,2.757-8.848c0.853-2.965,1.713-5.93,2.478-8.918c0.807-2.978,1.533-5.973,2.282-8.964
				c0.708-3,1.437-5.994,2.098-9.004c0.695-3.001,1.291-6.024,1.926-9.038l1.772-9.066c1.145-6.05,2.226-12.11,3.227-18.184
				c1.029-6.068,1.867-12.167,2.713-18.261C418.911,180.118,419.679,174.013,420.287,167.891z"/>
		</g>
		<path style="fill:#D86044;" d="M113.557,348.442c0,2.561-2.078,4.639-4.64,4.639c-2.562,0-4.639-2.077-4.639-4.639
			c0-2.563,2.078-4.64,4.639-4.64C111.479,343.802,113.557,345.879,113.557,348.442z"/>
		<path style="fill:#D86044;" d="M238.233,360.25c0,2.562-2.078,4.639-4.64,4.639c-2.561,0-4.639-2.077-4.639-4.639
			c0-2.563,2.078-4.64,4.639-4.64C236.155,355.611,238.233,357.688,238.233,360.25z"/>
		<path style="fill:#D86044;" d="M316.045,318.315c0,2.561-2.078,4.639-4.64,4.639s-4.64-2.077-4.64-4.639
			c0-2.563,2.078-4.64,4.64-4.64S316.045,315.753,316.045,318.315z"/>
		<path style="fill:#D86044;" d="M354.537,293.817c0,2.561-2.078,4.639-4.64,4.639c-2.562,0-4.64-2.077-4.64-4.639
			c0-2.563,2.078-4.64,4.64-4.64C352.458,289.177,354.537,291.254,354.537,293.817z"/>
		<path style="fill:#D86044;" d="M415.441,320.456c0,2.561-2.078,4.639-4.64,4.639c-2.562,0-4.64-2.077-4.64-4.639
			c0-2.563,2.078-4.64,4.64-4.64C413.363,315.816,415.441,317.893,415.441,320.456z"/>
		<path style="fill:#D86044;" d="M444.562,378.278c0,2.561-2.078,4.639-4.64,4.639s-4.64-2.077-4.64-4.639
			c0-2.563,2.078-4.64,4.64-4.64S444.562,375.715,444.562,378.278z"/>
		<path style="fill:#D86044;" d="M282.863,318.315c0,2.561-2.078,4.639-4.64,4.639c-2.562,0-4.64-2.077-4.64-4.639
			c0-2.563,2.078-4.64,4.64-4.64C280.785,313.675,282.863,315.753,282.863,318.315z"/>
		<path style="fill:#C7DDC9;" d="M225.094,431.698c0,0-17.607-29.108-7.004-37.542c10.603-8.434,31.118-17.767,32.86-32.434
			s11.016-45.091,29.379-44.879c18.363,0.212,9.982-11.184,28.173-19.152c18.19-7.969-5.4,31.9,7.728,32.632
			c13.129,0.732,2.514-22.6,22.821-21.934c20.308,0.666-4.674-22.667,25.15-28.667c29.824-6,33.378,24.001,47.268,44.667
			c13.89,20.666,16.292-5.333,33.091,0c16.799,5.333-11.88,25.999-8.207,48.666c3.673,22.667,20.339,4.682,27.006,31.341
			s-14.045,36.232-7.022,42.112c7.022,5.881,20.357,4.397,5.689,21.806C447.36,485.722,225.094,431.698,225.094,431.698z"/>
		<path style="fill:#AACCAE;" d="M268.553,432.394c-0.771-22.32-28.541-20.006-33.622-31.02c-4.937-10.7,27.161-19.788,15.024-35.58
			c-4.59,12.374-22.278,20.735-31.865,28.361c-10.603,8.434,7.004,37.542,7.004,37.542s13.705,3.331,34.529,8.071
			C265.394,437.626,268.65,435.182,268.553,432.394z"/>
		<path style="fill:#AACCAE;" d="M49.931,455.02c0,0-14.571-13.786-9.238-29.209c5.333-15.423,20.934-10.784,23.134-24.437
			c2.2-13.652-15.425-35.652-3.613-52.319s25.8,21.333,39.473,13.333c13.673-8,13.282-61.039,44.811-60.853
			c31.529,0.186,31.121,67.606,42.658,68.229c11.537,0.623,41.064-22.044,56.3-5.377c15.237,16.667-18.926,25.973-13.845,36.986
			c5.082,11.014,32.85,8.699,33.622,31.02C264.006,454.714,49.931,455.02,49.931,455.02z"/>
		<g>
			<path style="fill:#ACB748;" d="M341.88,451.882c0,0-15.897-18.897-14.014-27.544C329.75,415.693,341.88,451.882,341.88,451.882z"
				/>
			<path style="fill:#9EA331;" d="M341.88,451.882c0,0-13.323-54.135-3.553-55.569C348.098,394.878,341.88,451.882,341.88,451.882z"
				/>
			<path style="fill:#E2E2A1;" d="M341.88,451.882c0,0-0.694-1.288-1.734-3.222c-0.508-0.975-1.101-2.11-1.735-3.326
				c-0.626-1.222-1.293-2.525-1.959-3.828c-0.655-1.312-1.308-2.621-1.92-3.85c-0.602-1.234-1.162-2.385-1.645-3.372
				c-0.938-1.986-1.563-3.311-1.563-3.311s0.695,1.29,1.736,3.224c0.507,0.975,1.101,2.109,1.735,3.327
				c0.626,1.221,1.292,2.523,1.958,3.827c0.652,1.31,1.307,2.621,1.918,3.85c0.603,1.232,1.165,2.385,1.646,3.371
				C341.255,450.56,341.88,451.882,341.88,451.882z"/>
			<path style="fill:#ACB748;" d="M343.743,451.966c0,0,12.145-27.3,7.056-36.719C345.71,405.829,343.743,451.966,343.743,451.966z"
				/>
			<path style="fill:#E2E2A1;" d="M343.743,451.966c0,0,0.291-1.747,0.727-4.368c0.233-1.308,0.503-2.834,0.793-4.469
				c0.301-1.634,0.623-3.375,0.943-5.117c0.337-1.739,0.673-3.479,0.988-5.107c0.326-1.629,0.631-3.148,0.893-4.45
				c0.55-2.601,0.917-4.334,0.917-4.334s-0.293,1.748-0.728,4.369c-0.233,1.309-0.503,2.834-0.793,4.47
				c-0.301,1.633-0.623,3.373-0.943,5.115c-0.337,1.739-0.673,3.478-0.988,5.108c-0.327,1.628-0.633,3.147-0.894,4.45
				C344.108,450.234,343.743,451.966,343.743,451.966z"/>
			<path style="fill:#E2E2A1;" d="M339.887,413.414c0,0,0.17,2.325,0.426,5.814c0.114,1.744,0.25,3.78,0.392,5.96
				c0.133,2.183,0.273,4.509,0.413,6.835c0.125,2.328,0.25,4.656,0.367,6.84c0.104,2.183,0.204,4.22,0.287,5.966
				c0.142,3.494,0.238,5.824,0.238,5.824s-0.173-2.326-0.429-5.813c-0.114-1.744-0.248-3.779-0.392-5.961
				c-0.131-2.182-0.271-4.509-0.411-6.837c-0.125-2.327-0.25-4.655-0.368-6.837c-0.104-2.183-0.202-4.221-0.288-5.965
				C339.981,415.744,339.887,413.414,339.887,413.414z"/>
		</g>
		<g>
			<path style="fill:#ACB748;" d="M102.456,432.394c0,0-7.183-12.57-5.187-17.359C99.264,410.246,102.456,432.394,102.456,432.394z"
				/>
			<path style="fill:#9EA331;" d="M102.456,432.394c0,0-1.995-32.623,3.791-32.422C112.033,400.17,102.456,432.394,102.456,432.394z
				"/>
			<path style="fill:#E2E2A1;" d="M102.456,432.394c0,0-0.265-0.818-0.661-2.042c-0.191-0.615-0.414-1.33-0.653-2.101
				c-0.232-0.771-0.479-1.591-0.726-2.413c-0.24-0.825-0.479-1.648-0.703-2.422c-0.217-0.774-0.42-1.498-0.594-2.117
				c-0.332-1.245-0.554-2.072-0.554-2.072s0.265,0.815,0.661,2.04c0.191,0.614,0.414,1.332,0.653,2.1
				c0.232,0.771,0.479,1.593,0.727,2.415c0.24,0.824,0.477,1.648,0.702,2.422c0.217,0.774,0.42,1.498,0.594,2.117
				C102.234,431.565,102.456,432.394,102.456,432.394z"/>
			<path style="fill:#E2E2A1;" d="M105.349,409.998c0,0-0.146,1.358-0.365,3.397c-0.117,1.018-0.254,2.206-0.401,3.479
				c-0.153,1.272-0.316,2.629-0.48,3.985c-0.173,1.357-0.346,2.712-0.507,3.982c-0.169,1.271-0.326,2.456-0.461,3.473
				c-0.286,2.03-0.476,3.384-0.476,3.384s0.146-1.358,0.364-3.398c0.118-1.018,0.255-2.206,0.401-3.479
				c0.153-1.271,0.317-2.629,0.48-3.984c0.172-1.357,0.346-2.713,0.507-3.982c0.169-1.271,0.327-2.457,0.462-3.474
				C105.158,411.35,105.349,409.998,105.349,409.998z"/>
		</g>
		<path style="fill:#B27130;" d="M25.963,472.577h449.976c0,0-36.486-44.178-170.262-50.973
			C171.901,414.81,57.887,416.331,25.963,472.577z"/>
		<g>
			<path style="fill:#D18F52;" d="M159.412,420.366c-3.818,6.092-11.778,11.948-14.128,17.684c-2.702,6.599-6.756,14.347-7.178,18.4
				c-0.376,3.609-3.496,8.83-6.55,16.127h32.781c0.784-3.653,1.769-8.124,2.569-13.424c2.027-13.423,3.012-11.876,3.012-17.393
				c0-4.655,1.143-17.174,4.814-22.222C169.533,419.76,164.424,420.035,159.412,420.366z"/>
			<path style="fill:#D18F52;" d="M241.395,472.577c-0.438-4.259-1.547-9.012-0.363-12.072c1.829-4.729-5.883-24.324,0-37.416
				c0.624-1.388,1.046-2.693,1.324-3.935c-7.444-0.169-14.784-0.285-22.006-0.334c-1.203,2.145-2.744,4.448-4.795,7.173
				c-5.399,7.17-4.054,12.214-4.73,22.274c-0.573,8.523-2.112,14.794-2.98,24.31H241.395z"/>
			<path style="fill:#D18F52;" d="M95.284,472.577c1.351,0,0-8.693,2.703-19.505c2.703-10.811,5.405-7.432,5.461-12.162
				c0.056-4.729,11.431-8.784,19.539-10.56c3.38-0.74,5.231-3.796,6.244-7.104c-14.301,1.849-27.551,4.345-39.552,7.637
				c-4.3,1.228-9.604,3.259-14.665,7.167c-5.87,4.533-2.703,11.645-3.378,15.699c-0.675,4.053-4.73,4.053-14.189,4.053
				c-5.207,0-7.955,7.78-9.375,14.775H95.284z"/>
			<path style="fill:#D18F52;" d="M388.527,445.683c0,6.125,6.758,12.118,11.485,20.227c1.96,3.358,2.873,5.077,3.227,6.667h15.96
				c-0.041-1.71-0.124-3.129-0.267-3.964c-0.676-3.966-12.162-21.621-15.508-27.703c-1.057-1.922-1.719-3.708-2.301-5.384
				c-4.215-1.135-8.648-2.235-13.298-3.289C387.125,435.725,388.527,439.559,388.527,445.683z"/>
			<path style="fill:#D18F52;" d="M449.511,465.235l-2.229-12.545c-4.265-2.163-9.079-4.385-14.498-6.602
				c3.428,5.475,7.584,12.31,9.121,15.768c1.614,3.635,3.229,6.761,4.7,10.721h9.731L449.511,465.235z"/>
			<path style="fill:#D18F52;" d="M304.347,421.539c-7.903-0.398-15.739-0.769-23.489-1.099c-0.347,4.467-0.068,10.665-0.438,17.609
				c-0.677,12.68,2.702,17.727,2.702,28.535c0,2.16,0.055,4.15,0.131,5.992h32.725c-0.099-1.358-0.025-1.296,0.068-0.926
				c-1.018-5.098-5.966-30.005-6.572-35.343C309.085,432.893,306.696,426.909,304.347,421.539z"/>
			<path style="fill:#D18F52;" d="M316.045,471.651c0.117,0.587,0.186,0.926,0.186,0.926S316.129,471.988,316.045,471.651z"/>
			<path style="fill:#D18F52;" d="M343.323,431.147c-0.839,6.32-3.443,11.789-3.443,17.893c0,6.101,0.676,11.465,0,23.537h24.323
				c-0.677-6.846-8.108-19.505-8.784-26.894c-0.522-5.714-1.448-11.118-2.154-19.677c-3.354-0.465-6.796-0.905-10.32-1.317
				C343.373,426.733,343.609,428.991,343.323,431.147z"/>
		</g>
		<ellipse style="fill:#DBC0AB;" cx="219.353" cy="448.797" rx="80.95" ry="7.095"/>
		<g>
			<path style="fill:#ACB748;" d="M74.383,469.46c0,0-15.898-18.898-14.014-27.544C62.252,433.268,74.383,469.46,74.383,469.46z"/>
			<path style="fill:#9EA331;" d="M74.383,469.46c0,0-13.325-54.136-3.554-55.569C80.601,412.455,74.383,469.46,74.383,469.46z"/>
			<path style="fill:#E2E2A1;" d="M74.383,469.46c0,0-0.694-1.289-1.734-3.224c-0.508-0.974-1.102-2.109-1.737-3.326
				c-0.626-1.221-1.292-2.524-1.959-3.827c-0.653-1.311-1.306-2.621-1.918-3.85c-0.601-1.235-1.163-2.385-1.645-3.372
				c-0.938-1.986-1.563-3.311-1.563-3.311s0.695,1.29,1.735,3.224c0.508,0.974,1.101,2.109,1.736,3.326
				c0.625,1.222,1.291,2.525,1.958,3.828c0.653,1.311,1.306,2.621,1.918,3.85c0.601,1.232,1.163,2.385,1.644,3.37
				C73.757,468.136,74.383,469.46,74.383,469.46z"/>
			<path style="fill:#ACB748;" d="M76.245,469.542c0,0,12.146-27.299,7.056-36.718C78.212,423.405,76.245,469.542,76.245,469.542z"
				/>
			<path style="fill:#E2E2A1;" d="M76.245,469.542c0,0,0.291-1.747,0.728-4.367c0.232-1.308,0.502-2.835,0.792-4.469
				c0.301-1.634,0.623-3.375,0.944-5.118c0.336-1.738,0.672-3.478,0.988-5.107c0.327-1.629,0.632-3.148,0.894-4.45
				c0.549-2.6,0.916-4.333,0.916-4.333s-0.292,1.748-0.728,4.368c-0.232,1.31-0.502,2.835-0.791,4.471
				c-0.302,1.633-0.623,3.374-0.944,5.116c-0.337,1.738-0.673,3.477-0.988,5.107c-0.328,1.629-0.632,3.148-0.894,4.451
				C76.611,467.809,76.245,469.542,76.245,469.542z"/>
			<path style="fill:#E2E2A1;" d="M72.389,430.99c0,0,0.17,2.325,0.427,5.811c0.114,1.747,0.248,3.781,0.392,5.962
				c0.132,2.183,0.272,4.51,0.413,6.835c0.124,2.328,0.25,4.655,0.367,6.839c0.105,2.183,0.204,4.221,0.288,5.967
				c0.142,3.494,0.236,5.824,0.236,5.824s-0.171-2.326-0.427-5.813c-0.115-1.744-0.249-3.78-0.392-5.961
				c-0.131-2.183-0.271-4.508-0.412-6.836c-0.125-2.327-0.251-4.655-0.368-6.838c-0.104-2.183-0.203-4.221-0.287-5.965
				C72.484,433.32,72.389,430.99,72.389,430.99z"/>
		</g>
		<g>
			<path style="fill:#ACB748;" d="M294.499,437.966c0,0-15.897-18.898-14.014-27.544
				C282.369,401.776,294.499,437.966,294.499,437.966z"/>
			<path style="fill:#9EA331;" d="M294.499,437.966c0,0-13.324-54.136-3.553-55.569
				C300.717,380.961,294.499,437.966,294.499,437.966z"/>
			<path style="fill:#E2E2A1;" d="M294.499,437.966c0,0-0.693-1.289-1.733-3.224c-0.509-0.974-1.102-2.109-1.737-3.326
				c-0.626-1.221-1.292-2.524-1.959-3.827c-0.652-1.311-1.307-2.621-1.918-3.85c-0.602-1.235-1.163-2.385-1.645-3.372
				c-0.939-1.986-1.564-3.31-1.564-3.31s0.695,1.289,1.736,3.223c0.508,0.974,1.1,2.109,1.736,3.327
				c0.626,1.221,1.291,2.524,1.957,3.826c0.654,1.311,1.307,2.622,1.919,3.851c0.602,1.233,1.164,2.385,1.645,3.37
				C293.874,436.643,294.499,437.966,294.499,437.966z"/>
			<path style="fill:#ACB748;" d="M296.361,438.049c0,0,12.145-27.3,7.057-36.718C298.328,391.912,296.361,438.049,296.361,438.049z
				"/>
			<path style="fill:#E2E2A1;" d="M296.361,438.049c0,0,0.29-1.748,0.727-4.368c0.232-1.308,0.503-2.834,0.791-4.469
				c0.303-1.634,0.624-3.375,0.944-5.118c0.337-1.738,0.674-3.478,0.988-5.107c0.327-1.629,0.632-3.148,0.894-4.451
				c0.55-2.6,0.916-4.333,0.916-4.333s-0.291,1.748-0.727,4.368c-0.232,1.31-0.503,2.835-0.791,4.471
				c-0.302,1.634-0.623,3.374-0.943,5.115c-0.338,1.739-0.675,3.478-0.988,5.108c-0.327,1.629-0.634,3.148-0.895,4.45
				C296.727,436.316,296.361,438.049,296.361,438.049z"/>
			<path style="fill:#E2E2A1;" d="M292.505,399.497c0,0,0.171,2.325,0.426,5.813c0.115,1.746,0.25,3.781,0.393,5.961
				c0.132,2.183,0.272,4.509,0.412,6.835c0.125,2.329,0.25,4.655,0.367,6.839c0.105,2.184,0.204,4.221,0.288,5.967
				c0.142,3.494,0.236,5.824,0.236,5.824s-0.173-2.325-0.428-5.814c-0.114-1.743-0.248-3.78-0.391-5.961
				c-0.132-2.183-0.272-4.507-0.413-6.836c-0.124-2.327-0.248-4.655-0.367-6.838c-0.103-2.183-0.203-4.221-0.288-5.965
				C292.599,401.827,292.505,399.497,292.505,399.497z"/>
		</g>
		<g>
			<path style="fill:#ACB748;" d="M403.135,458.262c0,0-11.991-14.255-10.57-20.776
				C393.986,430.965,403.135,458.262,403.135,458.262z"/>
			<path style="fill:#9EA331;" d="M403.135,458.262c0,0-10.05-40.834-2.681-41.915C407.824,415.265,403.135,458.262,403.135,458.262
				z"/>
			<path style="fill:#E2E2A1;" d="M403.135,458.262c0,0-0.524-0.973-1.308-2.433c-0.384-0.733-0.831-1.59-1.311-2.507
				c-0.473-0.922-0.974-1.904-1.479-2.888c-0.492-0.988-0.984-1.978-1.446-2.903c-0.454-0.932-0.877-1.8-1.24-2.543
				c-0.708-1.5-1.18-2.497-1.18-2.497s0.525,0.973,1.31,2.431c0.383,0.734,0.829,1.592,1.309,2.509
				c0.472,0.92,0.974,1.903,1.477,2.888c0.494,0.988,0.986,1.977,1.447,2.903c0.454,0.93,0.878,1.798,1.24,2.543
				C402.662,457.264,403.135,458.262,403.135,458.262z"/>
			<path style="fill:#ACB748;" d="M404.54,458.324c0,0,9.161-20.59,5.321-27.695C406.023,423.525,404.54,458.324,404.54,458.324z"/>
			<path style="fill:#E2E2A1;" d="M404.54,458.324c0,0,0.219-1.317,0.548-3.294c0.177-0.986,0.379-2.139,0.599-3.371
				c0.227-1.231,0.47-2.546,0.711-3.859c0.255-1.313,0.507-2.623,0.745-3.851c0.246-1.23,0.477-2.376,0.675-3.357
				c0.414-1.962,0.691-3.269,0.691-3.269s-0.221,1.318-0.55,3.295c-0.175,0.987-0.379,2.138-0.597,3.371
				c-0.228,1.232-0.47,2.545-0.713,3.858c-0.252,1.313-0.508,2.624-0.745,3.855c-0.247,1.227-0.477,2.374-0.674,3.356
				C404.815,457.017,404.54,458.324,404.54,458.324z"/>
			<path style="fill:#E2E2A1;" d="M401.63,429.246c0,0,0.13,1.754,0.321,4.385c0.087,1.315,0.189,2.852,0.296,4.497
				c0.101,1.645,0.206,3.399,0.311,5.154c0.095,1.757,0.189,3.512,0.276,5.158c0.08,1.646,0.154,3.184,0.219,4.5
				c0.106,2.635,0.177,4.393,0.177,4.393s-0.129-1.754-0.322-4.385c-0.086-1.315-0.186-2.852-0.294-4.496
				c-0.099-1.646-0.205-3.4-0.311-5.156c-0.094-1.756-0.189-3.512-0.277-5.158c-0.078-1.646-0.153-3.184-0.216-4.499
				C401.703,431.003,401.63,429.246,401.63,429.246z"/>
		</g>
		<g>
			<path style="fill:#ACB748;" d="M221.664,468.314c0,0-9.27-16.223-6.695-22.401C217.544,439.731,221.664,468.314,221.664,468.314z
				"/>
			<path style="fill:#9EA331;" d="M221.664,468.314c0,0-2.575-42.102,4.893-41.845C234.024,426.727,221.664,468.314,221.664,468.314
				z"/>
			<path style="fill:#E2E2A1;" d="M221.664,468.314c0,0-0.341-1.054-0.854-2.635c-0.247-0.794-0.534-1.719-0.842-2.711
				c-0.299-0.994-0.619-2.054-0.938-3.115c-0.308-1.063-0.617-2.127-0.906-3.124c-0.28-1.001-0.542-1.934-0.766-2.733
				c-0.43-1.607-0.716-2.676-0.716-2.676s0.342,1.054,0.855,2.634c0.246,0.794,0.534,1.719,0.842,2.711
				c0.3,0.995,0.619,2.055,0.938,3.116c0.308,1.064,0.616,2.127,0.905,3.124c0.281,1,0.543,1.934,0.767,2.733
				C221.377,467.245,221.664,468.314,221.664,468.314z"/>
			<path style="fill:#E2E2A1;" d="M225.398,439.41c0,0-0.189,1.755-0.472,4.385c-0.15,1.314-0.328,2.847-0.516,4.488
				c-0.198,1.644-0.41,3.394-0.621,5.145c-0.223,1.749-0.446,3.498-0.654,5.139c-0.219,1.64-0.421,3.17-0.595,4.48
				c-0.369,2.62-0.614,4.367-0.614,4.367s0.188-1.754,0.47-4.385c0.152-1.314,0.328-2.847,0.518-4.491
				c0.198-1.641,0.409-3.391,0.621-5.144c0.222-1.748,0.445-3.498,0.654-5.138c0.217-1.64,0.42-3.169,0.595-4.48
				C225.151,441.157,225.398,439.41,225.398,439.41z"/>
		</g>
		<g>
			<path style="fill:#ACB748;" d="M351.982,466.008c0,0-7.699-13.472-5.561-18.605C348.56,442.272,351.982,466.008,351.982,466.008z
				"/>
			<path style="fill:#9EA331;" d="M351.982,466.008c0,0-2.139-34.963,4.063-34.749C362.246,431.473,351.982,466.008,351.982,466.008
				z"/>
			<path style="fill:#E2E2A1;" d="M351.982,466.008c0,0-0.283-0.876-0.709-2.189c-0.206-0.659-0.444-1.428-0.7-2.251
				c-0.249-0.826-0.514-1.706-0.778-2.587c-0.256-0.884-0.512-1.768-0.753-2.596c-0.232-0.83-0.451-1.605-0.637-2.27
				c-0.356-1.334-0.594-2.221-0.594-2.221s0.284,0.874,0.71,2.186c0.204,0.658,0.442,1.427,0.698,2.25
				c0.249,0.827,0.514,1.708,0.779,2.589c0.256,0.884,0.513,1.768,0.753,2.596c0.231,0.83,0.449,1.605,0.636,2.27
				C351.743,465.12,351.982,466.008,351.982,466.008z"/>
			<path style="fill:#E2E2A1;" d="M355.082,442.004c0,0-0.155,1.456-0.391,3.643c-0.126,1.091-0.272,2.363-0.43,3.727
				c-0.165,1.365-0.339,2.817-0.514,4.273c-0.186,1.453-0.371,2.904-0.544,4.268c-0.182,1.36-0.35,2.631-0.494,3.72
				c-0.307,2.175-0.511,3.627-0.511,3.627s0.156-1.456,0.392-3.642c0.125-1.092,0.272-2.364,0.43-3.729
				c0.164-1.363,0.339-2.816,0.514-4.272c0.185-1.453,0.371-2.905,0.544-4.267c0.181-1.361,0.35-2.632,0.495-3.721
				C354.878,443.455,355.082,442.004,355.082,442.004z"/>
		</g>
		<g>
			<path style="fill:#ACB748;" d="M162.266,431.238c0,0-11.893-20.811-8.589-28.741
				C156.981,394.569,162.266,431.238,162.266,431.238z"/>
			<path style="fill:#9EA331;" d="M162.266,431.238c0,0-3.303-54.013,6.277-53.683C178.124,377.886,162.266,431.238,162.266,431.238
				z"/>
			<path style="fill:#E2E2A1;" d="M162.266,431.238c0,0-0.438-1.352-1.095-3.381c-0.317-1.018-0.685-2.204-1.081-3.478
				c-0.384-1.275-0.793-2.636-1.202-3.996c-0.396-1.364-0.792-2.729-1.164-4.01c-0.359-1.283-0.695-2.479-0.983-3.505
				c-0.55-2.062-0.917-3.434-0.917-3.434s0.439,1.353,1.095,3.38c0.316,1.018,0.684,2.205,1.081,3.478
				c0.384,1.275,0.793,2.637,1.203,3.998c0.396,1.363,0.791,2.729,1.163,4.009c0.359,1.283,0.696,2.48,0.983,3.506
				C161.899,429.865,162.266,431.238,162.266,431.238z"/>
			<path style="fill:#E2E2A1;" d="M167.056,394.156c0,0-0.242,2.249-0.604,5.626c-0.194,1.685-0.42,3.652-0.664,5.759
				c-0.254,2.107-0.524,4.353-0.795,6.601c-0.286,2.244-0.572,4.487-0.839,6.592c-0.28,2.104-0.54,4.066-0.763,5.748
				c-0.475,3.361-0.789,5.603-0.789,5.603s0.241-2.249,0.604-5.626c0.195-1.685,0.42-3.652,0.664-5.759
				c0.254-2.107,0.525-4.353,0.796-6.6c0.286-2.244,0.573-4.489,0.839-6.593c0.28-2.103,0.541-4.066,0.764-5.747
				C166.74,396.396,167.056,394.156,167.056,394.156z"/>
		</g>
		<path style="fill:#DBC0AB;" d="M141.653,465.775c0,0.906-3.46,1.64-7.728,1.64c-4.268,0-7.729-0.733-7.729-1.64
			c0-0.905,3.461-1.64,7.729-1.64C138.193,464.135,141.653,464.87,141.653,465.775z"/>
		<path style="fill:#DBC0AB;" d="M110.387,443.29c0,0.905-3.461,1.64-7.728,1.64c-4.268,0-7.729-0.734-7.729-1.64
			c0-0.905,3.46-1.641,7.729-1.641C106.926,441.649,110.387,442.384,110.387,443.29z"/>
		<path style="fill:#DBC0AB;" d="M276.214,438.044c0,0.904-3.46,1.639-7.728,1.639c-4.268,0-7.728-0.734-7.728-1.639
			c0-0.905,3.46-1.641,7.728-1.641C272.754,436.404,276.214,437.139,276.214,438.044z"/>
		<path style="fill:#DBC0AB;" d="M323.958,466.531c0,0.905-3.46,1.641-7.727,1.641c-4.269,0-7.728-0.735-7.728-1.641
			c0-0.904,3.46-1.639,7.728-1.639C320.498,464.892,323.958,465.626,323.958,466.531z"/>
		<path style="fill:#DBC0AB;" d="M339.052,434.761c0,0.906-3.461,1.642-7.728,1.642c-4.269,0-7.729-0.735-7.729-1.642
			c0-0.904,3.46-1.639,7.729-1.639C335.591,433.123,339.052,433.857,339.052,434.761z"/>
		<path style="fill:#DBC0AB;" d="M426.926,462.358c0,0.906-3.459,1.641-7.728,1.641c-4.268,0-7.729-0.734-7.729-1.641
			c0-0.904,3.461-1.64,7.729-1.64C423.467,460.718,426.926,461.454,426.926,462.358z"/>
		<path style="fill:#DBC0AB;" d="M383.754,451.319c0,0.905-3.459,1.639-7.727,1.639c-4.269,0-7.729-0.733-7.729-1.639
			c0-0.905,3.46-1.64,7.729-1.64C380.295,449.679,383.754,450.414,383.754,451.319z"/>
		<path style="fill:#DBC0AB;" d="M112.486,434.004c0,0.419-1.598,0.757-3.569,0.757c-1.971,0-3.568-0.338-3.568-0.757
			c0-0.418,1.598-0.757,3.568-0.757C110.888,433.248,112.486,433.586,112.486,434.004z"/>
		<path style="fill:#DBC0AB;" d="M94.293,448.797c0,0.418-1.599,0.757-3.569,0.757c-1.971,0-3.569-0.339-3.569-0.757
			c0-0.417,1.598-0.757,3.569-0.757C92.694,448.041,94.293,448.38,94.293,448.797z"/>
		<path style="fill:#DBC0AB;" d="M281.792,431.697c0,0.419-1.598,0.759-3.568,0.759c-1.972,0-3.57-0.34-3.57-0.759
			c0-0.418,1.599-0.757,3.57-0.757C280.195,430.94,281.792,431.279,281.792,431.697z"/>
		<path style="fill:#DBC0AB;" d="M244.37,465.775c0,0.419-1.599,0.757-3.569,0.757c-1.972,0-3.569-0.338-3.569-0.757
			c0-0.418,1.597-0.758,3.569-0.758C242.771,465.017,244.37,465.357,244.37,465.775z"/>
		<path style="fill:#DBC0AB;" d="M439.922,455.02c0,0.419-1.598,0.757-3.568,0.757c-1.972,0-3.569-0.338-3.569-0.757
			c0-0.418,1.598-0.758,3.569-0.758C438.325,454.262,439.922,454.602,439.922,455.02z"/>
		<path style="fill:#DBC0AB;" d="M152.063,461.601c0,0.419-1.598,0.758-3.568,0.758c-1.972,0-3.569-0.339-3.569-0.758
			c0-0.417,1.597-0.756,3.569-0.756C150.465,460.845,152.063,461.184,152.063,461.601z"/>
		<path style="fill:#DBC0AB;" d="M53.499,467.415c0,0.418-1.598,0.757-3.569,0.757c-1.972,0-3.569-0.339-3.569-0.757
			c0-0.418,1.597-0.757,3.569-0.757C51.901,466.658,53.499,466.997,53.499,467.415z"/>
		<path style="fill:#D86044;" d="M66.966,397.295c0,1.733-1.406,3.139-3.14,3.139c-1.733,0-3.139-1.405-3.139-3.139
			c0-1.734,1.406-3.14,3.139-3.14C65.561,394.156,66.966,395.561,66.966,397.295z"/>
		<path style="fill:#D86044;" d="M97.003,409.088c0,1.733-1.406,3.139-3.14,3.139c-1.733,0-3.139-1.405-3.139-3.139
			c0-1.734,1.406-3.14,3.139-3.14C95.597,405.949,97.003,407.354,97.003,409.088z"/>
		<path style="fill:#D86044;" d="M83.223,382.371c0,0.947-0.769,1.716-1.717,1.716c-0.948,0-1.716-0.769-1.716-1.716
			c0-0.948,0.769-1.717,1.716-1.717C82.454,380.654,83.223,381.422,83.223,382.371z"/>
		<path style="fill:#D86044;" d="M146.214,399.972c0,0.947-0.769,1.716-1.717,1.716c-0.948,0-1.716-0.768-1.716-1.716
			c0-0.948,0.769-1.717,1.716-1.717C145.445,398.255,146.214,399.024,146.214,399.972z"/>
		<path style="fill:#D86044;" d="M227.115,385.777c0,0.947-0.769,1.716-1.717,1.716c-0.948,0-1.716-0.769-1.716-1.716
			c0-0.948,0.769-1.717,1.716-1.717C226.346,384.06,227.115,384.829,227.115,385.777z"/>
		<path style="fill:#D86044;" d="M289.082,369.529c0,0.947-0.769,1.716-1.717,1.716c-0.948,0-1.716-0.769-1.716-1.716
			c0-0.948,0.768-1.717,1.716-1.717C288.313,367.812,289.082,368.581,289.082,369.529z"/>
		<path style="fill:#D86044;" d="M297.362,330.324c0,0.947-0.769,1.716-1.717,1.716c-0.948,0-1.716-0.769-1.716-1.716
			c0-0.948,0.768-1.717,1.716-1.717C296.593,328.607,297.362,329.375,297.362,330.324z"/>
		<path style="fill:#D86044;" d="M353.915,371.246c0,0.947-0.769,1.716-1.717,1.716c-0.948,0-1.716-0.769-1.716-1.716
			c0-0.948,0.767-1.717,1.716-1.717C353.146,369.529,353.915,370.297,353.915,371.246z"/>
		<path style="fill:#D86044;" d="M389.346,414.409c0,0.947-0.768,1.716-1.717,1.716c-0.948,0-1.716-0.769-1.716-1.716
			c0-0.948,0.768-1.717,1.716-1.717C388.578,412.692,389.346,413.461,389.346,414.409z"/>
		<path style="fill:#D86044;" d="M420.915,391.017c0,0.947-0.769,1.716-1.717,1.716c-0.948,0-1.716-0.769-1.716-1.716
			c0-0.948,0.767-1.717,1.716-1.717C420.146,389.3,420.915,390.069,420.915,391.017z"/>
		<path style="fill:#D86044;" d="M156.237,391.017c0,1.733-1.406,3.139-3.14,3.139c-1.733,0-3.139-1.405-3.139-3.139
			c0-1.734,1.406-3.14,3.139-3.14C154.831,387.878,156.237,389.283,156.237,391.017z"/>
		<path style="fill:#D86044;" d="M225.066,409.088c0,1.733-1.406,3.139-3.14,3.139c-1.733,0-3.139-1.405-3.139-3.139
			c0-1.734,1.406-3.14,3.139-3.14C223.66,405.949,225.066,407.354,225.066,409.088z"/>
		<path style="fill:#D86044;" d="M295.645,360.25c0,1.733-1.406,3.139-3.14,3.139s-3.14-1.405-3.14-3.139
			c0-1.734,1.406-3.14,3.14-3.14S295.645,358.516,295.645,360.25z"/>
		<path style="fill:#D86044;" d="M321.419,399.497c0,1.733-1.406,3.139-3.14,3.139s-3.14-1.405-3.14-3.139
			c0-1.734,1.406-3.14,3.14-3.14S321.419,397.762,321.419,399.497z"/>
		<path style="fill:#D86044;" d="M407.745,355.612c0,1.733-1.406,3.139-3.14,3.139s-3.14-1.405-3.14-3.139
			c0-1.734,1.406-3.14,3.14-3.14S407.745,353.878,407.745,355.612z"/>
		<path style="fill:#D86044;" d="M154.517,357.112c0,1.733-1.406,3.139-3.14,3.139c-1.733,0-3.14-1.405-3.14-3.139
			c0-1.734,1.406-3.14,3.14-3.14C153.111,353.972,154.517,355.378,154.517,357.112z"/>
		<path style="fill:#D86044;" d="M371.702,381.022c0,2.626-2.13,4.754-4.755,4.754s-4.755-2.128-4.755-4.754
			c0-2.627,2.13-4.755,4.755-4.755S371.702,378.395,371.702,381.022z"/>
		<path style="fill:#D86044;" d="M358.395,343.803c0,2.626-2.13,4.754-4.755,4.754s-4.755-2.128-4.755-4.754
			c0-2.627,2.13-4.755,4.755-4.755S358.395,341.176,358.395,343.803z"/>
		<path style="fill:#D86044;" d="M444.677,418.457c0,2.626-2.13,4.754-4.755,4.754s-4.755-2.128-4.755-4.754
			c0-2.627,2.13-4.755,4.755-4.755S444.677,415.831,444.677,418.457z"/>
		<path style="fill:#D86044;" d="M135.065,364.889c0,2.562-2.078,4.639-4.64,4.639c-2.562,0-4.639-2.077-4.639-4.639
			c0-2.563,2.078-4.64,4.639-4.64C132.988,360.25,135.065,362.327,135.065,364.889z"/>
		<path style="fill:#AACCAE;" d="M60.687,361.555c0,0-5.578-5.949-17.828-8.475C42.86,353.081,43.265,365.305,60.687,361.555z"/>
		<path style="fill:#AACCAE;" d="M58.61,364.889c0,0-7.827,0.861-10.539,4.639C48.071,369.528,53.61,374.723,58.61,364.889z"/>
		<path style="fill:#AACCAE;" d="M42.86,430.083c0,0-7.038-10.216-15.269-9.747C27.591,420.336,33.36,433.112,42.86,430.083z"/>
		<path style="fill:#C7DDC9;" d="M339.289,313.675c0,0,3.847-12.222-4.541-19.171C334.748,294.504,327.217,307.795,339.289,313.675z
			"/>
		<path style="fill:#C7DDC9;" d="M399.495,308.915c0,0,7.607-13.711,17.986-13.035C417.481,295.879,415.555,307.469,399.495,308.915
			z"/>
		<path style="fill:#C7DDC9;" d="M459.639,452.228c0,0,7.607-13.711,17.986-13.035C477.625,439.193,475.7,450.783,459.639,452.228z"
			/>
		<path style="fill:#C7DDC9;" d="M432.785,357.111c0,0,3.075,9.622,18.075,10.783c0,0-4.012-8.599-14.506-10.219
			c0,0,5.506,0.993,11.506-2.064C447.86,355.612,443.709,348.667,432.785,357.111z"/>
	</g>
	<g id="MAN">
		<g>
			<path style="fill:#999795;" d="M180.151,79.378l-1.723,3.545l-11.208-0.257c0,0-4.288,18.511,0.041,32.013l-1.911,0.602
				c0,0-15.399-51.791,8.57-81.485l7.621,7.999c0,0-8.928,16.462-11.445,27.854l10.255,3.801L180.151,79.378z"/>
			<path style="fill:#BFBEBE;" d="M176.096,71.872c-2.685,4.421-1.877,9.009-1.321,10.967l3.653,0.085l1.723-3.545l0.201-5.929
				L176.096,71.872z"/>
			<path style="fill:#B27130;" d="M176.709,80.666l224.208,53.625c0,0,4.116-4.724,5.949-13.023L178.111,74.319
				C178.111,74.319,175.51,76.817,176.709,80.666z"/>
			<path style="fill:#D8B08D;" d="M400.43,133.415c0,0,3.339-3.53,5.645-11.64C406.075,121.775,397.927,126.206,400.43,133.415z"/>
			<path style="opacity:0.5;fill:#BFBEBE;" d="M165.832,81.229c0,0-3.139-5.788,2.082-11.164
				C167.914,70.064,162.01,73.896,165.832,81.229z"/>
			<path style="fill:#BFBEBE;" d="M174.836,34.757L174.836,34.757l-0.916-0.962c-23.969,29.694-8.57,81.485-8.57,81.485l1.911-0.602
				l-1.128-0.889C166.133,113.79,151.167,68.391,174.836,34.757z"/>
		</g>
		<path style="fill:#AD4D3A;" d="M277.114,105.574c0,0,6.333,0.759,14.665,7.879c8.334,7.121,43.335,84.172,56.335,7.146
			l11.332,3.682c0,0-2.332,53.127-30.332,53.376c-28.001,0.249-49.333-24.786-49.333-24.786"/>
		<path style="fill:#842E20;" d="M283.811,157.026l2.636-4.577l-5.958-27.381v28.597
			C281.153,154.386,282.275,155.563,283.811,157.026z"/>
		<path style="fill:#4C3A38;" d="M186.774,236.907c0,0-5.572,79.666,4.674,194.663h12.995c0,0,21.696-153.997,26.583-177.998
			l7.098-3.333c0,0,3.121,83.667,6.39,181.331h11.891c0,0,15.37-139.478,16.13-194.663"/>
		<polyline style="fill:#775F5D;" points="240.072,237.697 238.072,247.948 231.198,250.072 237.197,247.323 238.696,237.697 
			230.447,238.448 230.447,248.073 229.611,238.699 		"/>
		<path style="fill:#775F5D;" d="M190.323,251.699c0,0,8.125,1.499,10.874-7.812C201.197,243.887,202.198,253.573,190.323,251.699z"
			/>
		<path style="fill:#775F5D;" d="M272.205,250.072c0,0-5.883-1.499-6.758-8.248c0,0,0.516,5.249,6.758,7.375"/>
		<polygon style="fill:#352121;" points="238.124,250.24 243.031,248.158 238.256,251.519 		"/>
		<path style="fill:#AD4D3A;" d="M241.054,103.574c0,0-35.274,1.094-61.939,9.88l7.333,75.453l0.334,48.001
			c0,0,42.754,5.999,85.876,0c0,0,6.456-75.334,11.456-84.667c0,0-5.334-42.666-7-46.666
			C277.114,105.574,252.509,102.564,241.054,103.574z"/>
		<path style="fill:#FFCAB3;" d="M220.956,106.96c0,0-0.513,16.489,20.115,22.989c0,0,10.357-10.335,11.554-22.292"/>
		<path style="fill:#F9BB41;" d="M216.497,60.178c0,0,3.114-23.771,13.616-26.27c10.503-2.5,25.832,0,30.667,3.666
			c4.834,3.666,7.878,18.255,7.878,18.255"/>
		<path style="fill:#F2E2D1;" d="M218.484,50.866c-1.431,5.079-1.988,9.312-1.988,9.312l52.161-4.349c0,0-0.452-2.165-1.282-5.034
			C248.416,45.137,225.303,49.384,218.484,50.866z"/>
		<path style="fill:#C1852F;" d="M219.465,66.959c0,0-17.652,2.372-25.675,1.207c-8.023-1.164,16.543-13.199,47.285-15.005
			c30.739-1.804,43.978,0.966,48.188,3.191c4.214,2.225-15.255,6.036-26.179,6.336"/>
		<path style="fill:#E59E41;" d="M241.347,54.064c30.741-1.804,43.978,0.966,48.191,3.19c0.071,0.038,0.118,0.076,0.176,0.115
			c0.253-0.36,0.143-0.706-0.45-1.017c-4.211-2.226-17.449-4.996-48.188-3.191c-28.637,1.682-51.898,12.236-48.469,14.616
			C193.996,64.342,215.483,55.584,241.347,54.064z"/>
		<path style="fill:#F9B9A2;" d="M259.36,81.324c0,3.362,1.143,6.089,4.163,6.089c3.021,0,6.776-2.727,6.776-6.089
			s-2.449-6.087-5.472-6.087C261.81,75.236,259.36,77.962,259.36,81.324z"/>
		<path style="fill:#E28C71;" d="M266.217,82.751c0,0-2.177-2.001-5.006,0.851C261.211,83.601,263.223,79.376,266.217,82.751z"/>
		<path style="fill:#933319;" d="M264.829,60.491c0,0,0.538,8.364-0.63,19.182l-1.001-18.599L264.829,60.491z"/>
		<path style="fill:#FFCAB3;" d="M252.786,104.662c0,11.966-7.145,18.303-15.962,18.303l0,0c-8.816,0-15.961-6.336-15.961-18.303
			V73.528c0-11.967,6.529-14.469,15.345-14.469l0.616-0.484c8.816,0,15.962,2.987,15.962,14.954V104.662z"/>
		<path style="fill:#E28D6F;" d="M220.863,102.283c3.843,5.06,10.6,7.687,18.302,7.687c5.129,0,9.839-1.167,13.551-3.439
			c0.039-0.609,0.07-1.226,0.07-1.869V73.528c0-11.967-7.145-14.954-15.962-14.954c-8.816,0-15.961,2.987-15.961,14.954V102.283z"/>
		<path style="fill:#F9B9A2;" d="M224.545,79.672c0,4.332-1.472,7.845-5.365,7.845c-3.893,0-8.731-3.513-8.731-7.845
			c0-4.332,3.157-7.844,7.047-7.844C221.389,71.828,224.545,75.34,224.545,79.672z"/>
		<path style="fill:#E28C71;" d="M215.709,81.51c0,0,2.804-2.576,6.451,1.095C222.161,82.605,219.568,77.163,215.709,81.51z"/>
		<path style="fill:#E28D6F;" d="M238.866,77.557c0,0,2.765-3.178,4.828-1.287C243.693,76.271,241.98,73.49,238.866,77.557z"/>
		<path style="fill:#E28D6F;" d="M259.874,76.845c0,0-2.418-2.691-4.165-1.037C255.709,75.808,257.142,73.394,259.874,76.845z"/>
		<path style="fill:#FFCAB3;" d="M220.863,61.695v27.659c0,11.967,9.701,18.302,21.669,18.302c11.967,0,21.667-6.336,21.667-18.302
			V58.221c0-0.005,0-0.01,0-0.015C241.721,55.017,227.054,59.233,220.863,61.695z"/>
		<path style="fill:#AF4723;" d="M245.862,68.99c0.523,1.782-1.967,1.223-4.606,1.998c-2.642,0.773-4.431,2.588-4.955,0.806
			c-0.521-1.78,1.196-3.852,3.836-4.625C242.776,66.394,245.34,67.21,245.862,68.99z"/>
		<path style="fill:#AF4723;" d="M253.451,70.824c-0.421,1.538,1.709,1.024,3.987,1.652c2.28,0.626,3.847,2.159,4.269,0.622
			c0.424-1.537-1.08-3.293-3.362-3.92C256.066,68.55,253.874,69.287,253.451,70.824z"/>
		<path style="fill:#E28D6F;" d="M250.328,81.367c0,0,0.148-0.076,0.414-0.191c0.271-0.11,0.655-0.273,1.14-0.417
			c0.48-0.133,1.052-0.299,1.7-0.324c0.321-0.006,0.67,0.001,1.017,0.153c0.085,0.039,0.171,0.08,0.245,0.147
			c0.084,0.054,0.148,0.133,0.209,0.216c0.12,0.165,0.171,0.365,0.19,0.554c0.015,0.38-0.083,0.726-0.201,1.043
			c-0.12,0.318-0.275,0.609-0.434,0.883c-0.156,0.278-0.335,0.524-0.496,0.763c-0.172,0.229-0.329,0.453-0.487,0.648
			c-0.309,0.395-0.589,0.702-0.785,0.917c-0.198,0.213-0.313,0.335-0.313,0.335s0.094-0.138,0.255-0.379
			c0.084-0.119,0.186-0.265,0.3-0.432c0.11-0.168,0.232-0.361,0.374-0.564c0.276-0.411,0.577-0.906,0.866-1.446
			c0.142-0.269,0.275-0.556,0.385-0.85c0.105-0.292,0.182-0.603,0.165-0.888c-0.011-0.289-0.167-0.506-0.423-0.621
			c-0.256-0.117-0.565-0.151-0.862-0.153c-0.599-0.001-1.173,0.099-1.653,0.2c-0.481,0.107-0.888,0.201-1.165,0.281
			C250.487,81.322,250.328,81.367,250.328,81.367z"/>
		<path style="fill:#352C29;" d="M243.411,81.692c-0.017,0.749-0.467,1.347-1.008,1.335c-0.542-0.012-0.964-0.629-0.947-1.379
			c0.017-0.749,0.469-1.348,1.007-1.336C243.004,80.325,243.43,80.942,243.411,81.692z"/>
		<path style="fill:#352C29;" d="M258.644,80.541c-0.018,0.75-0.468,1.348-1.01,1.336c-0.539-0.012-0.965-0.63-0.946-1.379
			c0.017-0.749,0.471-1.348,1.009-1.335C258.238,79.174,258.66,79.791,258.644,80.541z"/>
		<path style="opacity:0.2;fill:#E28C71;" d="M236.208,84.644c0,1.529-2.28,2.769-5.095,2.769c-2.816,0-5.097-1.24-5.097-2.769
			c0-1.527,2.281-2.767,5.097-2.767C233.928,81.877,236.208,83.116,236.208,84.644z"/>
		<path style="opacity:0.2;fill:#E28C71;" d="M269.657,86.095c0,1.182-1.764,2.14-3.939,2.14s-3.939-0.958-3.939-2.14
			c0-1.181,1.764-2.139,3.939-2.139S269.657,84.914,269.657,86.095z"/>
		<path style="opacity:0.3;fill:#AF4723;" d="M242.532,107.657c11.967,0,21.667-6.336,21.667-18.302c0,0-4.202-2.943-11.673-3.26
			c0,0-1.369,2.104-3.579,0.525c0,0-8.205,0.843-14.831,6.837c0,0-13.233-0.296-12.98-14.295c0.051-2.761-0.061-4.046-0.273-4.333
			v14.525C220.863,101.321,230.563,107.657,242.532,107.657z"/>
		<path style="fill:#FFFFFF;" d="M245.931,90.241c0,0,2.518,0.5,5.351,0.416c0,0-1.751,4.084-3.251,4.5
			C246.531,95.574,245.931,90.241,245.931,90.241z"/>
		<path style="fill:#AF4723;" d="M221.086,75.916c0,0,1.807-8.717,3.459-10.842c0,0,6.027,0.125,8.777-6.375
			c0,0,0.129,5.501,3.501,6.125c3.374,0.625,6.342-0.875,9.107-0.624c2.767,0.249,3.291,3.977,7.467,2.676
			c4.174-1.301,3.499-4.676,5.962-4.552c2.463,0.125,8.383,0.25,10.297-5.875c0,0-33.686-3.375-53.947,5.625
			c0,0,0.839,2.722,3.226,3.798c2.387,1.077,0,5.955,0,5.955l1.512,0.725L221.086,75.916z"/>
		<g>
			<path style="fill:#842E20;" d="M241.281,132.741c-1.119,0.738-2.248,1.459-3.379,2.176c-1.131,0.717-2.254,1.447-3.398,2.145
				l-3.415,2.113c-1.142,0.699-2.271,1.421-3.423,2.102l-0.276,0.163l-0.228-0.212c-1.155-1.075-2.176-2.217-3.16-3.414
				c-0.485-0.601-0.953-1.215-1.417-1.832c-0.438-0.635-0.897-1.257-1.317-1.905c-0.409-0.655-0.828-1.304-1.21-1.976l-1.091-2.044
				l-0.972-2.102c-0.345-0.692-0.572-1.434-0.861-2.149l-0.412-1.082c-0.123-0.365-0.226-0.738-0.34-1.106
				c-0.218-0.74-0.46-1.474-0.631-2.226l-0.462-2.267c-0.182-0.75-0.229-1.523-0.332-2.285c-0.073-0.766-0.224-1.524-0.233-2.294
				l-0.047-2.305c-0.045-0.767,0.038-1.533,0.088-2.297l0.181-2.288l0.015,2.292c0.002,0.762-0.028,1.523,0.068,2.282l0.198,2.272
				c0.041,0.758,0.221,1.502,0.324,2.252c0.133,0.747,0.209,1.502,0.42,2.233l0.546,2.204c0.203,0.728,0.466,1.439,0.681,2.164
				c0.117,0.359,0.221,0.723,0.347,1.079l0.419,1.054c0.293,0.697,0.524,1.419,0.871,2.092l0.98,2.044l1.096,1.984l1.182,1.934
				c0.402,0.64,0.843,1.254,1.263,1.882c0.446,0.609,0.895,1.217,1.362,1.812c0.939,1.176,1.946,2.329,3.014,3.351l-0.503-0.049
				c1.153-0.681,2.33-1.32,3.493-1.982l3.501-1.97c1.163-0.663,2.345-1.294,3.519-1.938
				C238.918,134.005,240.094,133.364,241.281,132.741z"/>
		</g>
		<g>
			<path style="fill:#842E20;" d="M244.614,132.409c1.385,0.204,2.758,0.462,4.136,0.693c1.375,0.247,2.743,0.523,4.115,0.784
				l-0.425,0.241c0.303-1.089,0.574-2.207,0.835-3.318c0.258-1.114,0.479-2.235,0.706-3.355c0.213-1.123,0.398-2.25,0.574-3.38
				c0.099-0.563,0.163-1.13,0.241-1.696c0.078-0.566,0.152-1.133,0.203-1.702c0.142-1.134,0.232-2.272,0.312-3.413
				c0.058-0.569,0.066-1.141,0.102-1.711c0.027-0.571,0.067-1.143,0.061-1.714l0.013-1.717l-0.044-1.718
				c-0.005-0.575-0.027-1.148-0.083-1.719l-0.115-1.724c0.214,1.129,0.47,2.263,0.583,3.413c0.066,0.574,0.152,1.148,0.194,1.725
				l0.094,1.733c0.042,0.579,0.037,1.157,0.044,1.736c-0.002,0.578,0.03,1.159-0.001,1.737c-0.044,1.158-0.101,2.315-0.208,3.469
				c-0.045,0.578-0.113,1.153-0.187,1.727c-0.073,0.574-0.133,1.151-0.227,1.722c-0.161,1.147-0.382,2.284-0.603,3.42
				c-0.471,2.27-1.034,4.511-1.803,6.713l-0.112,0.322l-0.313-0.081c-1.352-0.351-2.707-0.685-4.056-1.048
				C247.304,133.169,245.953,132.816,244.614,132.409z"/>
		</g>
		<ellipse style="fill:#842E20;" cx="243.693" cy="138.408" rx="0.999" ry="1.417"/>
		<path style="fill:#842E20;" d="M245.693,156.241c0,0.782-0.446,1.416-1,1.416c-0.552,0-1-0.634-1-1.416
			c0-0.783,0.447-1.417,1-1.417C245.247,154.824,245.693,155.458,245.693,156.241z"/>
		<ellipse style="fill:#842E20;" cx="244.614" cy="176.241" rx="1" ry="1.417"/>
		<path style="fill:#842E20;" d="M245.536,196.241c0,0.783-0.447,1.417-1,1.417c-0.554,0-1.001-0.634-1.001-1.417
			c0-0.783,0.447-1.416,1.001-1.416C245.088,194.825,245.536,195.458,245.536,196.241z"/>
		<path style="fill:#842E20;" d="M245.456,216.242c0,0.782-0.447,1.417-1,1.417c-0.552,0-1-0.635-1-1.417
			c0-0.782,0.447-1.417,1-1.417C245.008,214.825,245.456,215.46,245.456,216.242z"/>
		<path style="fill:#842E20;" d="M214.809,169.823c0,0,36.389-10.082,61.638-12.166"/>
		<path style="opacity:0.4;fill:#775F5D;" d="M207.261,330.323c0,9.43-4.049,13.479-9.041,13.479c-4.994,0-9.043-4.05-9.043-13.479
			c0-9.43,4.049-13.48,9.043-13.48C203.212,316.843,207.261,320.893,207.261,330.323z"/>
		<path style="opacity:0.4;fill:#775F5D;" d="M259.674,331.573c0,6.824,2.129,10.818,5.194,12.513
			c0.65-8.364,1.302-17.037,1.925-25.772C262.725,319.264,259.674,323.39,259.674,331.573z"/>
		<path style="fill:#AD4D3A;" d="M179.115,113.454c0,0-36.001,11.454-51.333,42.788c-15.334,31.333-2.666,85.583-2.666,85.583
			l12.999-2.251c0,0-11.015-81.665,45.159-83.332C183.274,156.241,184.782,120.001,179.115,113.454z"/>
		<path style="fill:#842E20;" d="M186.948,157.657c-1.833-6.249-5.668-4.583-5.668-4.583s3.418-0.332,5.042,4.583"/>
		<path style="fill:#842E20;" d="M180.395,115.696c0,0,4.927,5.795,5.927,25.211C186.322,140.908,186.342,122.693,180.395,115.696z"
			/>
		<path style="fill:#FFCAB3;" d="M120.581,186.458c-2,27.379,4.535,55.366,4.535,55.366l12.999-2.251c0,0-3.324-24.67,3.006-47.169
			C132.184,188.152,123.79,186.831,120.581,186.458z"/>
		<path style="fill:#D67D6E;" d="M119.282,187.24c0,0,14.5,1.169,23,7.584l1.333-3.792c0,0-11.165-7.458-24.332-7.626V187.24z"/>
		<path style="fill:#D68476;" d="M322.11,177.189c2.281,0.315,4.615,0.49,7.004,0.469c5.002-0.044,9.183-1.784,12.681-4.6
			c-2.254-1.215-6.197-1.523-10.463-0.613C327.13,173.342,323.701,175.193,322.11,177.189z"/>
		<path style="fill:#FFCAB3;" d="M336.782,151.513c2.359,2.002,7.33,5.688,14.566,8.435c7.212-15.536,8.098-35.666,8.098-35.666
			l-11.332-3.682C345.238,137.641,341.284,147.129,336.782,151.513z"/>
		<path style="fill:#D67D6E;" d="M335.197,151.658c0,0,6.999,6.75,16.915,9.75l1.25-2.166c0,0-10.328-4.25-16.58-9.084
			L335.197,151.658z"/>
		<path style="fill:#FFCAB3;" d="M348.114,120.6c0,0-3.584-2.941-3.335-4.609c0.251-1.666,10.167,2.084,10.25,3.084
			c0.085,1-2.832,2.167-2.832,2.167l7.249,3.041C359.446,124.282,349.171,121.559,348.114,120.6z"/>
		<path style="fill:#FFCAB3;" d="M349.079,107.083c0,0-0.822-2.872-2.419-2.672c-1.599,0.199-2.566,9.15-1.294,9.558
			c1.271,0.406,3.583-2.963,3.583-2.963s-0.716,4.202,0.82,4.589c1.534,0.387,3.804-2.134,3.804-2.134s-0.432,4.102,0.436,4.406
			c0.867,0.305,3.583-2.62,3.583-2.62s1.045,3.357,1.853,3.561c0.808,0.204,2.558-6.748,2.558-6.748l1.801,0.37
			c0,0,0.375-4.89-1.424-5.258c-1.8-0.368-4.678,2.859-4.678,2.859s-0.233-3.152-1.141-3.296c-0.912-0.145-2.412,2.399-2.412,2.399
			S352.585,101.694,349.079,107.083z"/>
		<path style="fill:#F9BB41;" d="M188.78,414.075c0,0,7.834-3.835,19,1.999l-2.332,33.164h-28.667l-1.499-1.499
			c0,0,8.165-1.335,16.249-10.333C191.531,437.406,190.447,426.572,188.78,414.075z"/>
		<polygon style="fill:#3F3C36;" points="176.781,449.238 176.406,448.863 205.52,448.193 205.448,449.238 		"/>
		<path style="fill:#DD9A24;" d="M191.531,437.406c0,0,3.417-0.647,8.042,1.228c0,0-3.709-2.186-8.042-1.624"/>
		<path style="fill:#DD9A24;" d="M206.704,418.462c-0.788,0.083-1.307,1.292-1.157,2.699c0.15,1.407,0.913,2.482,1.702,2.396
			c0.002,0,0.003-0.001,0.005-0.001l0.331-4.705C207.319,418.579,207.015,418.427,206.704,418.462z"/>
		<path style="fill:#F9BB41;" d="M242.322,416.697c0,0,9.374-3.624,17.499-1.751l-2.75,23.688c0,0,10.876,8.306,18,9.56
			l-0.875,1.045h-32.5l2-7.415C243.697,441.823,242.447,424.197,242.322,416.697z"/>
		<polygon style="fill:#3F3C36;" points="241.697,449.238 241.979,448.193 274.635,448.716 274.197,449.238 		"/>
		<path style="fill:#DD9A24;" d="M249.946,423.874c0,1.582-1.007,2.864-2.25,2.864c-1.242,0-2.249-1.282-2.249-2.864
			c0-1.582,1.007-2.864,2.249-2.864C248.939,421.009,249.946,422.292,249.946,423.874z"/>
		<g>
			<path style="fill:#7892A0;" d="M109.699,278.067l3.499,57.749c0,0,12.5,3.25,33.25,0l10.25-61
				C156.698,274.816,131.448,270.318,109.699,278.067z"/>
			<path style="fill:#8AA9B7;" d="M121.781,285.814l-3.332,1.335c0,0-0.5-37.168,5.166-39.333
				c5.667-2.167,18.501-3.334,20.501-2.667c1.999,0.667-4.5,28.369-4.5,28.369l-2.334,0.132c0,0,3.667-24.167,2.667-24.002
				c-1,0.166-9.833,0-12.999,2C123.781,253.649,121.781,285.814,121.781,285.814z"/>
			<g>
				<path style="fill:#B2C9D1;" d="M139.344,249.649c-1,0.166-9.833,0-12.999,2c-3.167,2-5.167,34.165-5.167,34.165l-2.733,1.096
					c0.001,0.141,0.004,0.239,0.004,0.239l3.332-1.335c0,0,2.001-32.165,5.168-34.165c2.849-1.8,10.268-1.845,12.459-1.957
					C139.387,249.669,139.369,249.645,139.344,249.649z"/>
				<path style="fill:#B2C9D1;" d="M144.115,245.15c-0.418-0.14-1.314-0.198-2.513-0.185c0.895,0.011,1.566,0.071,1.909,0.185
					c2.001,0.667-4.499,28.369-4.499,28.369l-1.725,0.096c-0.001,0.013-0.005,0.036-0.005,0.036l2.334-0.132
					C139.615,273.519,146.115,245.816,144.115,245.15z"/>
			</g>
			<path style="fill:#8AA9B7;" d="M145.948,322.066c0,0-3.403,4.25-1.451,8.999l49.701-28.249l-2.25-2.249L145.948,322.066z"/>
			<g>
				<path style="fill:#7892A0;" d="M197.52,298.178c1.417,2.4,1.157,5.172-0.577,6.194c-1.735,1.023-4.287-0.09-5.703-2.488
					c-1.414-2.398-1.155-5.173,0.579-6.194C193.553,294.668,196.105,295.781,197.52,298.178z"/>
				<path style="fill:#7892A0;" d="M198.884,297.375c2.152,3.645,2.676,7.322,1.169,8.212c-1.507,0.889-4.472-1.348-6.624-4.994
					c-2.152-3.645-2.675-7.322-1.168-8.211C193.767,291.492,196.732,293.728,198.884,297.375z"/>
				<path style="fill:#59747F;" d="M194.291,300.083c-1.942-3.29-2.551-6.598-1.546-7.868c-0.171,0.031-0.335,0.078-0.483,0.166
					c-1.507,0.889-0.983,4.565,1.168,8.211c2.151,3.647,5.117,5.883,6.624,4.994c0.147-0.088,0.268-0.208,0.377-0.345
					C198.833,305.508,196.233,303.375,194.291,300.083z"/>
			</g>
			<path style="opacity:0.4;fill:#B2C9D1;" d="M110.949,298.714c4.063-0.8,18.07-2.979,41.888-0.923l0.772-4.594
				c-7.079-0.555-25.259-1.414-42.852,2.355L110.949,298.714z"/>
			<path style="fill:#95E0F4;" d="M195.385,294.754c0,0,1.033-3.001,3.048-3.001C200.448,291.753,195.385,294.754,195.385,294.754z"
				/>
			<path style="fill:#95E0F4;" d="M201.448,295.879c0,0,2.312-2.063,5.125-1.564C209.385,294.817,201.448,295.879,201.448,295.879z"
				/>
			<path style="fill:#95E0F4;" d="M203.323,298.982c0,0,2.75-0.417,2.936,0.646C206.448,300.692,203.323,298.982,203.323,298.982z"
				/>
			<path style="fill:#95E0F4;" d="M198.01,300.567c0,0,1.779-2.625,2.421-2.25S198.01,300.567,198.01,300.567z"/>
			<path style="fill:#95E0F4;" d="M202.948,287.128c0,0,1.312-3.188,2.437-3.124C206.51,284.067,202.948,287.128,202.948,287.128z"
				/>
			<path style="fill:#95E0F4;" d="M201.759,290.677c0,0.233-0.188,0.423-0.422,0.423c-0.234,0-0.424-0.189-0.424-0.423
				s0.19-0.425,0.424-0.425C201.571,290.253,201.759,290.444,201.759,290.677z"/>
			<path style="fill:#95E0F4;" d="M195.915,287.522c0,0.423-0.344,0.767-0.767,0.767c-0.424,0-0.768-0.344-0.768-0.767
				c0-0.424,0.344-0.769,0.768-0.769C195.571,286.753,195.915,287.098,195.915,287.522z"/>
			<path style="fill:#95E0F4;" d="M207.697,282.253c0,0.277-0.223,0.502-0.499,0.502c-0.276,0-0.5-0.225-0.5-0.502
				c0-0.275,0.224-0.498,0.5-0.498C207.474,281.754,207.697,281.977,207.697,282.253z"/>
			<path style="fill:#95E0F4;" d="M211.76,294.503c0,0.382-0.308,0.689-0.688,0.689c-0.379,0-0.688-0.308-0.688-0.689
				c0-0.379,0.308-0.686,0.688-0.686C211.452,293.817,211.76,294.124,211.76,294.503z"/>
			<path style="fill:#95E0F4;" d="M202.786,297.985c0,0.164-0.131,0.294-0.294,0.294c-0.162,0-0.294-0.13-0.294-0.294
				c0-0.162,0.132-0.294,0.294-0.294C202.655,297.691,202.786,297.823,202.786,297.985z"/>
			<path style="fill:#95E0F4;" d="M200.431,302.777c0,0.22-0.177,0.397-0.397,0.397c-0.221,0-0.399-0.177-0.399-0.397
				c0-0.221,0.178-0.397,0.399-0.397C200.253,302.379,200.431,302.556,200.431,302.777z"/>
			<path style="fill:#95E0F4;" d="M198.01,297.061c0,0.239-0.193,0.433-0.432,0.433c-0.239,0-0.433-0.193-0.433-0.433
				c0-0.24,0.194-0.433,0.433-0.433C197.816,296.628,198.01,296.821,198.01,297.061z"/>
			<path style="fill:#95E0F4;" d="M214.198,301.535c0,0.259-0.21,0.47-0.469,0.47c-0.258,0-0.469-0.211-0.469-0.47
				c0-0.258,0.21-0.469,0.469-0.469C213.988,301.066,214.198,301.277,214.198,301.535z"/>
		</g>
		<path style="fill:#FFCAB3;" d="M138.115,239.573c0,0,4.771,4.515,5.396,5.577l-2.39-0.175c0,0-0.173,6.474-0.485,8.474
			c-0.313,1.999-3.563,0-3.563,0s-2.625,2.25-3.5,2.374c-0.874,0.125-2.125-2.499-2.125-2.499s-1.375,1.75-2.25,1.874
			c-0.875,0.126-1.624-2.624-1.624-2.624s-1.375,1.75-2.25,1.75c-0.876,0-0.208-12.5-0.208-12.5S130.157,237.949,138.115,239.573z"
			/>
	</g>
	<circle id="SUN" style="fill:#FFF2A4;" cx="97.003" cy="83.956" r="31.912"/>
</g>
</svg>
