<?xml version="1.0" encoding="utf-8"?>
<!-- Generator: Adobe Illustrator 27.5.0, SVG Export Plug-In . SVG Version: 6.00 Build 0)  -->
<svg version="1.1" xmlns="http://www.w3.org/2000/svg" xmlns:xlink="http://www.w3.org/1999/xlink" x="0px" y="0px"
	 viewBox="0 0 1200 1200" style="enable-background:new 0 0 1200 1200;" xml:space="preserve">
<g id="Background">
	<rect style="fill:#F1F2F2;" width="1200" height="1200"/>
</g>
<g id="Graphic_Elements">
	<g>
		<path style="fill:#376245;" d="M849.035,164.799h-498.07c-35.767,0-64.762,28.995-64.762,64.762v646.338
			c0,35.768,28.995,64.763,64.762,64.763h262.929l138.81,127.894l8.204-127.894h88.127c35.768,0,64.763-28.995,64.763-64.763
			V229.561C913.797,193.793,884.802,164.799,849.035,164.799z"/>
		<g>
			<g>
				<g>
					<path style="fill:#ECE7CA;" d="M699.857,739.806c-12.404-40.844-38.337-76.149-71.78-102.366
						c-36.094-28.294-77.93-40.639-119.88-57.171c-7.217,64.781-17.706,147.033,15.725,206.567
						c19.455,34.645,50.587,62.359,87.662,78.036c13.411,5.67,27.341,9.624,41.404,11.752c2.571,0.388,4.991,0.565,7.321,0.622
						c-17.099-65.329-47.901-127.045-89.971-179.885c-2.937-3.688-2.328-9.058,1.361-11.995c3.688-2.938,9.058-2.327,11.995,1.361
						c43.91,55.15,75.954,119.641,93.564,187.889c7.705-2.846,13.267-7.532,17.096-11.963
						C725.218,826.937,700.124,740.685,699.857,739.806z"/>
				</g>
			</g>
			<g>
				<g>
					<path style="fill:#ECE7CA;" d="M851.718,566.444c0,0-25.773,10.885-28.025,11.881c-32.122,14.199-71.649,32.891-85.817,66.421
						c-9.555,22.61-12.531,48.874-8.846,78.061c0.107,0.852,0.209,1.73,0.314,2.624c1.172,10.064,2.778,23.848,14.463,30.855
						c0.413,0.248,0.857,0.492,1.321,0.731c2.387-39.544,18.167-78.198,45.188-108.447c2.654-2.971,7.314-3.314,10.409-0.766
						c3.095,2.548,3.452,7.022,0.798,9.993c-25.334,28.362-39.944,64.736-41.757,101.838c2.655-0.249,5.565-0.851,8.74-1.938
						c16.271-5.574,31.606-15.489,46.881-30.312c1.888-1.832,3.741-3.743,5.511-5.683
						C860.725,678.038,851.718,566.444,851.718,566.444z"/>
				</g>
			</g>
			<g>
				<g>
					<path style="fill:#83A84D;" d="M879.559,796.489c0,0-19.369-3.286-21.078-3.547c-24.379-3.72-54.84-7.577-75.887,6.926
						c-14.194,9.78-25.872,24.206-34.709,42.878c-0.258,0.545-0.529,1.103-0.805,1.672c-3.106,6.401-7.359,15.168-3.086,23.729
						c0.151,0.303,0.322,0.615,0.506,0.932c16.344-22.512,40.28-39.44,67.699-47.149c2.693-0.757,5.582,0.799,6.452,3.476
						c0.871,2.677-0.607,5.461-3.3,6.218c-25.708,7.227-48.091,23.248-63.172,44.531c1.666,0.855,3.616,1.597,5.906,2.152
						c11.738,2.843,24.561,2.762,39.201-0.247c1.81-0.372,3.629-0.804,5.409-1.284C842.759,865.962,879.559,796.489,879.559,796.489
						z"/>
				</g>
			</g>
			<g>
				<g>
					<path style="fill:#ECE7CA;" d="M343.088,738.151c0,0,24.079-1.014,26.199-1.068c30.243-0.771,67.907-0.77,91.286,20.123
						c15.766,14.089,27.755,33.445,35.633,57.531c0.23,0.703,0.474,1.424,0.722,2.159c2.793,8.269,6.618,19.594,0.099,29.353
						c-0.23,0.345-0.487,0.698-0.76,1.056c-16.421-29.915-42.942-54.205-75.122-67.811c-3.16-1.337-6.916,0.112-8.388,3.236
						c-1.472,3.123-0.103,6.739,3.058,8.076c30.172,12.757,54.943,35.703,70.017,63.928c-2.16,0.784-4.647,1.387-7.52,1.709
						c-14.723,1.651-30.316-0.423-47.669-6.342c-2.145-0.732-4.292-1.537-6.384-2.396
						C377.166,828.37,343.088,738.151,343.088,738.151z"/>
				</g>
			</g>
			<g>
				<g>
					<path style="fill:#83A84D;" d="M354.267,595.347c0,0,18.742,1.86,20.388,2.052c23.485,2.725,52.627,6.863,68.422,25.597
						c10.651,12.633,17.802,28.927,21.251,48.428c0.101,0.569,0.211,1.154,0.322,1.75c1.253,6.705,2.968,15.888-3.148,22.723
						c-0.216,0.242-0.453,0.487-0.704,0.733c-9.419-24.95-27.272-46.657-50.677-60.72c-2.298-1.381-5.364-0.673-6.845,1.583
						c-1.482,2.255-0.82,5.203,1.479,6.584c21.944,13.185,38.59,33.66,47.153,57.155c-1.757,0.369-3.748,0.562-6.006,0.496
						c-11.573-0.34-23.41-3.658-36.187-10.143c-1.579-0.802-3.152-1.661-4.677-2.555
						C370.724,668.896,354.267,595.347,354.267,595.347z"/>
				</g>
			</g>
		</g>
	</g>
</g>
<g id="Text">
	<g>
		<g>
			<text transform="matrix(1 0 0 1 348.0947 433.0683)"><tspan x="0" y="0" style="fill:#ECE7CA; font-family:'Anton-Regular'; font-size:222px; letter-spacing:16;">100</tspan><tspan x="391.598" y="0" style="fill:#ECE7CA; font-family:'Anton-Regular'; font-size:156px; letter-spacing:11;">%</tspan></text>
		</g>
		
			<text transform="matrix(1 0 0 1 367.5205 545.3544)" style="fill:#83A84D; font-family:'Asap-Bold'; font-size:121px; letter-spacing:-1;">ORGANIC</text>
	</g>
</g>
</svg>
